<svg version="1.1" id="Layer_1" xmlns="http://www.w3.org/2000/svg" xmlns:xlink="http://www.w3.org/1999/xlink" x="0px" y="0px"
	 width="100%" viewBox="0 0 224 224" enable-background="new 0 0 224 224" xml:space="preserve">
<path fill="#000000" opacity="1.000000" stroke="none" 
	d="
M43.589882,137.661667 
	C46.102406,146.829437 48.619862,155.581573 53.262688,164.328796 
	C55.710190,160.670883 56.276016,157.059616 57.464256,153.744324 
	C65.064896,132.537811 77.665924,115.243904 96.821106,103.026939 
	C98.393623,102.024002 100.348114,101.135910 99.465805,98.875015 
	C98.320366,95.939865 98.782707,91.648521 94.578445,90.871208 
	C78.642952,87.924973 73.603416,74.039612 76.365845,58.411522 
	C81.102295,31.615629 102.357651,13.577318 129.565933,13.753839 
	C143.035110,13.841225 156.598541,12.378817 169.964767,14.695590 
	C196.262009,19.253700 215.646545,45.905430 212.015564,72.346886 
	C210.733734,81.681358 205.150513,87.780327 196.002930,90.086166 
	C192.322083,91.013992 190.936234,93.131554 189.240982,96.332123 
	C184.985626,104.366104 184.582611,111.511162 189.154480,119.805351 
	C192.346619,125.596428 190.667496,132.900192 190.803864,139.512054 
	C191.215652,159.478867 190.196686,179.447586 190.728470,199.425980 
	C191.027634,210.665298 181.181534,220.307129 169.312653,221.103104 
	C159.639053,221.751846 150.688278,220.206863 143.670212,212.274490 
	C136.957993,219.356079 128.999100,221.813339 119.857666,221.165695 
	C114.420372,220.780472 109.214943,219.757645 104.931442,216.257309 
	C102.637230,214.382584 101.146454,214.641602 98.952408,216.432205 
	C94.832901,219.794174 89.965195,221.315186 84.561356,221.170654 
	C79.401566,221.032639 74.233650,221.218384 69.072334,221.113464 
	C56.364670,220.855179 45.843845,215.899460 39.212341,204.962738 
	C27.692747,185.964554 24.127401,165.682953 31.610838,144.185745 
	C32.372356,141.998184 33.351238,139.844452 34.528915,137.852173 
	C37.107254,133.490372 39.886684,133.377182 43.589882,137.661667 
M71.594864,211.777237 
	C75.425522,211.775345 79.256256,211.788055 83.086823,211.768768 
	C93.160088,211.718033 95.882057,209.030930 95.872597,199.076340 
	C95.857712,183.421646 95.855446,167.768478 96.833458,152.133514 
	C97.006447,149.368011 97.140778,146.313293 100.648811,146.142746 
	C104.060791,145.976883 104.019859,149.003891 104.461441,151.509476 
	C105.657471,158.295959 105.028114,165.134995 105.275467,171.946884 
	C105.625618,181.589432 104.572968,191.267059 106.019478,200.882767 
	C106.860298,206.472183 110.289993,209.934738 115.484322,211.318893 
	C118.305740,212.070740 121.436150,211.846771 124.419815,211.771332 
	C133.110245,211.551514 138.498581,206.327484 138.670425,197.697617 
	C138.862732,188.039978 138.650879,178.374619 138.809326,168.715790 
	C138.862473,165.476807 137.696793,163.810623 134.490997,163.182953 
	C130.717194,162.444092 127.136024,161.028168 123.863434,158.965714 
	C122.201981,157.918640 120.976044,156.471466 121.988136,154.393692 
	C122.898926,152.523865 124.643967,152.687622 126.343758,153.140198 
	C128.431763,153.696152 130.487701,154.408218 132.602753,154.820847 
	C141.925873,156.639694 151.149902,156.229919 160.235229,153.361694 
	C162.361160,152.690521 164.736359,151.957443 165.926697,154.535126 
	C167.293015,157.493866 164.812408,158.745560 162.722244,159.754822 
	C159.427673,161.345657 156.049240,162.783112 152.393494,163.390915 
	C149.741699,163.831787 148.274902,165.204498 148.292007,168.093857 
	C148.352158,178.254150 148.132889,188.419708 148.388199,198.573990 
	C148.556747,205.277496 153.835526,210.889099 160.000031,211.709015 
	C170.940170,213.164108 178.625381,209.917984 181.095032,202.711533 
	C181.518295,201.476501 181.740494,200.108917 181.741608,198.802307 
	C181.761826,174.983597 181.778778,151.164627 181.672928,127.346252 
	C181.655014,123.313271 180.475143,119.529747 177.230453,116.388458 
	C176.027710,117.178757 174.902023,117.836716 173.864319,118.612381 
	C154.896255,132.790863 122.433655,130.875702 107.178528,111.660820 
	C105.038635,108.965477 103.213654,109.467209 100.846405,111.043922 
	C90.427315,117.983620 82.040016,126.812073 75.334023,137.392822 
	C64.591347,154.342667 60.374702,173.113724 59.068356,192.810043 
	C58.885143,195.572449 59.490547,199.957703 55.466408,199.865097 
	C51.788315,199.780487 51.647911,195.502731 51.794022,192.672913 
	C52.256351,183.718475 49.593365,175.852036 44.967346,168.324127 
	C42.898884,164.958130 41.807373,160.999863 40.158741,157.361938 
	C39.762928,156.488510 40.086960,154.938995 38.165203,154.882523 
	C35.477753,168.685547 37.953617,181.698700 43.647774,194.265305 
	C48.895180,205.845932 57.504868,212.307526 71.594864,211.777237 
M201.103271,52.464516 
	C194.838104,35.722565 182.797897,25.032814 165.279510,22.906221 
	C150.831802,21.152384 135.968292,21.017681 121.443489,23.241680 
	C99.188652,26.649277 83.550095,46.866268 85.079117,69.286461 
	C85.577744,76.598030 89.128151,80.598541 95.313507,80.791092 
	C96.270393,79.274490 95.977959,77.557724 95.926941,75.931686 
	C95.659866,67.420013 96.637352,58.975010 97.253426,50.514091 
	C97.397186,48.539711 98.009300,46.182064 100.513359,46.136822 
	C103.241798,46.087528 103.085007,48.529392 103.468292,50.503922 
	C105.451088,60.718361 104.117142,71.078674 104.964676,81.365440 
	C106.764091,103.205437 117.875473,115.938423 139.463821,118.441948 
	C165.299194,121.437981 181.947678,103.578369 183.089172,84.107979 
	C183.430740,78.281639 183.451126,72.471703 183.628265,66.654274 
	C183.795380,61.166580 183.914474,55.672543 184.304977,50.199150 
	C184.443359,48.259529 185.048813,45.925743 187.740280,46.121914 
	C190.093521,46.293430 190.160355,48.405750 190.505722,50.242775 
	C191.840927,57.344536 191.048615,64.539642 191.561234,71.671974 
	C191.791702,74.878693 191.241547,78.253273 192.893677,81.238586 
	C199.566284,79.818024 203.661621,74.907104 203.460022,68.503311 
	C203.297775,63.349720 202.916641,58.193733 201.103271,52.464516 
z"/>
<path fill="#000000" opacity="1.000000" stroke="none" 
	d="
M137.105591,90.750992 
	C142.110199,89.299194 146.722534,89.252365 151.248520,90.832504 
	C155.951675,92.474472 157.034210,96.265327 154.086563,100.255302 
	C149.594391,106.335960 139.057419,106.473625 134.424911,100.512169 
	C131.470795,96.710625 132.211136,93.576103 137.105591,90.750992 
z"/>
<path fill="#000000" opacity="1.000000" stroke="none" 
	d="
M129.640961,63.380379 
	C131.509842,65.724548 132.470428,67.997078 131.798782,70.633736 
	C130.757843,74.720139 128.316162,77.512543 123.942932,77.885002 
	C120.402641,78.186531 117.829399,76.442535 116.518105,73.139091 
	C114.979660,69.263420 116.077293,65.838913 119.050598,63.183685 
	C122.340591,60.245651 125.909531,60.056755 129.640961,63.380379 
z"/>
<path fill="#000000" opacity="1.000000" stroke="none" 
	d="
M158.758850,75.062660 
	C158.161926,74.189552 157.721863,73.659401 157.492813,73.049934 
	C155.668610,68.195679 156.957779,63.727169 160.794113,61.793541 
	C164.808350,59.770229 167.864334,61.486153 170.378708,64.575256 
	C173.016449,67.815910 172.844849,72.597450 170.140305,75.559532 
	C167.380493,78.582153 163.497055,78.515610 158.758850,75.062660 
z"/>
</svg>