<?xml version="1.0" standalone="no"?>
<!DOCTYPE svg PUBLIC "-//W3C//DTD SVG 20010904//EN"
 "http://www.w3.org/TR/2001/REC-SVG-20010904/DTD/svg10.dtd">
<svg version="1.0" xmlns="http://www.w3.org/2000/svg"
 width="213.000000pt" height="213.000000pt" viewBox="0 0 213.000000 213.000000"
 preserveAspectRatio="xMidYMid meet">

<g transform="translate(0.000000,213.000000) scale(0.100000,-0.100000)"
fill="#000000" stroke="none">
<path d="M236 1969 l-26 -20 0 -279 c0 -342 9 -383 120 -520 l20 -25 -28 -55
-27 -55 0 -397 0 -396 30 -43 c38 -53 92 -82 166 -87 69 -5 121 10 172 50 l38
29 34 -30 c76 -66 219 -69 295 -5 l30 26 30 -25 c52 -44 89 -50 259 -44 230 9
338 45 442 148 127 124 185 342 136 509 -29 99 -106 143 -174 101 -47 -30 -64
-72 -73 -181 -5 -59 -15 -114 -27 -141 -21 -46 -87 -113 -106 -106 -7 2 -17
35 -23 74 -48 286 -181 526 -360 649 -30 21 -54 38 -54 40 0 1 15 33 34 71 50
99 56 146 56 419 0 249 -3 274 -39 301 -39 30 -70 17 -174 -69 -32 -26 -60
-48 -63 -48 -3 0 -31 8 -62 17 -78 23 -247 23 -325 -1 -64 -20 -53 -24 -142
50 -86 71 -114 78 -159 43z m139 -114 c44 -36 87 -65 96 -65 9 0 51 9 94 20
93 24 167 25 255 4 130 -31 119 -33 208 40 45 36 86 66 92 66 8 0 10 -79 8
-272 l-3 -273 -31 -66 c-81 -170 -218 -247 -425 -237 -81 4 -107 10 -163 36
-120 56 -205 168 -226 298 -11 66 -14 497 -3 507 11 12 16 9 98 -58z m738
-756 c79 -52 180 -170 230 -266 74 -145 110 -278 126 -462 6 -61 13 -116 17
-122 11 -18 32 10 39 51 4 24 13 41 24 45 44 14 110 66 139 110 39 60 50 98
61 216 7 71 13 95 29 112 20 19 22 19 47 3 32 -21 43 -48 51 -128 18 -178 -87
-375 -238 -446 -74 -34 -186 -52 -332 -52 l-136 0 -32 29 -33 29 -5 249 c-3
136 -9 254 -13 261 -11 17 -34 15 -41 -4 -3 -9 -6 -113 -6 -232 0 -250 -9
-285 -73 -315 -72 -35 -176 -14 -214 41 -16 24 -18 54 -21 239 l-3 213 28 10
c50 17 78 35 78 50 0 9 -8 14 -20 12 -60 -11 -176 -13 -208 -4 -70 19 -56 -28
14 -50 l39 -11 0 -211 c0 -149 -4 -218 -13 -236 -47 -94 -227 -94 -274 0 -10
19 -13 119 -13 395 0 344 2 373 20 413 10 23 21 42 23 42 3 0 35 -14 72 -32
169 -78 406 -56 539 51 21 17 42 31 46 31 3 0 27 -14 53 -31z"/>
<path d="M440 1510 c-28 -28 -26 -75 5 -105 29 -30 45 -31 79 -4 49 39 25 129
-35 129 -16 0 -38 -9 -49 -20z"/>
<path d="M861 1504 c-25 -32 -26 -45 -6 -83 28 -55 101 -44 119 17 20 71 -68
123 -113 66z"/>
<path d="M644 1365 c-19 -15 -18 -16 9 -40 15 -14 38 -25 50 -25 28 0 67 26
67 45 0 34 -90 48 -126 20z"/>
</g>
</svg>
